<svg xmlns="http://www.w3.org/2000/svg" viewBox="0 0 42.81 58.07"><defs><style>.cls-1{fill:#e0b392;}.cls-1,.cls-2,.cls-3,.cls-4,.cls-5,.cls-6{fill-rule:evenodd;}.cls-2{fill:#fff;}.cls-3{fill:#00a861;}.cls-4{fill:#df4145;}.cls-5{fill:#e8ae82;}.cls-6{fill:#231f20;}</style></defs><title>peoples-poultry</title><g id="Layer_2" data-name="Layer 2"><g id="Layer_1-2" data-name="Layer 1"><path class="cls-1" d="M37,24.86c-.18.72-.37,1.44-.58,2.16C34.77,21.38,28.86,16.9,20.16,15.1c10.1-1.86,16.51,6.2,16.8,9.76"/><path class="cls-2" d="M21,8.09c9.67,0,17.55,6.15,17.55,13.69S30.65,35.47,21,35.47,3.43,29.32,3.43,21.78,11.32,8.09,21,8.09"/><path class="cls-3" d="M2.08,53.11H3.19V5.74C2.39,4.87.7,4.89.28,4-.6,1.84.63.4,3.89,0H25c7.6-.47,20.8,7.19,17.18,21.11l-.18.66-.33.86c-.32-3.56-7.7-10.87-17.12-9.74L15.1,15.27l.51,4.37A3,3,0,0,1,13.75,19,.91.91,0,0,0,13,20.1a.89.89,0,0,1-.66.84,3.33,3.33,0,0,0-.6,3.76,11.18,11.18,0,0,1,4.93-2.37L13.4,24.07a6.39,6.39,0,0,1,3.1-.4c-1.22,3.3,4.24,9.58,8.35,9.57A18.61,18.61,0,0,1,13,30.1c-.88,5.46,1.51,13.75,6.75,16.69v6.32h1.37c.91,0,1.66.4,1.66.89v3.17c0,.5-.75.9-1.66.9H2.08c-.92,0-1.66-.4-1.66-.9V54c0-.49.74-.89,1.66-.89"/><path class="cls-4" d="M13.75,26.31A5,5,0,0,0,14,31.58c-.85-2.14-.32-4.44,1.44-5.41,2-1.09,5-.09,6.47,2.3,3.12,5.82-1.68,9.46-6.85,4.85h0a13.61,13.61,0,0,1-2.36-2.76h0c0-.05-.07-.11-.11-.17v0a8.94,8.94,0,0,1-.44-.8h0l-.09-.17h0a7.88,7.88,0,0,1-.45-1.22v0a.83.83,0,0,1,0-.15.06.06,0,0,0,0,0l0-.14v0c0-.24-.06-.49-.08-.74v-.25a.19.19,0,0,1,0-.08s0-.07,0-.11v-.06s0-.08,0-.13a0,0,0,0,1,0,0l0-.14v0c0-.05,0-.1,0-.15h0a1,1,0,0,0,.05-.16,5.63,5.63,0,0,1,.69.14,6.87,6.87,0,0,0,1.41.28m6.34,9.36Z"/><path class="cls-4" d="M13,10.82l1.32,1.9c.55.3.47.22.59-.61l0-2.16,1.33,2.18c.43.29.56.18.58-.61l.52-2.91.89,2.71c.17.43.59.33.6-.3l.07-2.28c.3-.66.6-.58.9.23l.11,1.16c.61.9,1.33.23,2.11-1.16.27.14.2.66.26,1,.88-.34,1.52-.32,1.64.52a2.6,2.6,0,0,1-.44,1.59A19.69,19.69,0,0,1,20.21,15c-1.49.82-2.83,1.57-3.57,2a29.35,29.35,0,0,0-3.34,3.76c-2,1.93-4.6,1.2-5.67-1.42l-.3-1.56c1.12.47,1.69.07,1.36-2.25l.87-.06c.2-.27-.2-1.07-.05-1.64.05-.21.51-.22,1.08.22l.67.69.12-2.69L13.56,14Z"/><path class="cls-5" d="M20.51,19.49a1.3,1.3,0,0,1,1.42,1.12,1.3,1.3,0,0,1-1.42,1.12,1.3,1.3,0,0,1-1.43-1.12,1.3,1.3,0,0,1,1.43-1.12"/><path class="cls-6" d="M20.51,19.94a.62.62,0,1,1-.69.62.66.66,0,0,1,.69-.62"/><path class="cls-1" d="M12.87,21.08c.43.49-.79,1.48-2.4,2.38a23.81,23.81,0,0,1,5.59.59l-1.93,0a2.17,2.17,0,0,1,.84.79c0,1.83-1.26,1.55-2.53,1.2a6.1,6.1,0,0,0-3.76.21l3.22-1.74A11,11,0,0,0,7,26.92a3.34,3.34,0,0,1,.59-3.76.9.9,0,0,0,.67-.84A.92.92,0,0,1,9,21.23a3.08,3.08,0,0,0,3.84-.15"/></g></g></svg>